<?xml version="1.0" encoding="UTF-8"?>
<svg version="1.1" xmlns="http://www.w3.org/2000/svg" width="238" height="250">
<path d="M0 0 C78.54 0 157.08 0 238 0 C238 82.5 238 165 238 250 C159.46 250 80.92 250 0 250 C0 167.5 0 85 0 0 Z " fill="#FEFEFE" transform="translate(0,0)"/>
<path d="M0 0 C2.31 0 4.62 0 7 0 C7.12375 0.721875 7.2475 1.44375 7.375 2.1875 C7.87813041 4.9637324 7.87813041 4.9637324 9.0625 7.1875 C12.16814837 16.5044451 8.94439902 25.03546178 4.78515625 33.4609375 C-1.8155584 45.28482635 -11.18638987 54.97699893 -22 63 C-23.16402344 63.88558594 -23.16402344 63.88558594 -24.3515625 64.7890625 C-47.27997107 81.58277981 -76.96384014 94.36516077 -105.75 90.375 C-112.94199591 88.84749644 -119.55759585 85.45137221 -124.125 79.5625 C-127.60770292 73.16519463 -127.18383606 64.34521643 -125.3125 57.4765625 C-124.5 55.5625 -124.5 55.5625 -123 53 C-122.67 53 -122.34 53 -122 53 C-121.90203125 54.0621875 -121.8040625 55.124375 -121.703125 56.21875 C-120.73629565 68.41027029 -120.73629565 68.41027029 -114.46484375 78.51171875 C-110.25976491 81.85470854 -106.18627813 82.80564964 -101 84 C-101.51949219 83.05640625 -102.03898437 82.1128125 -102.57421875 81.140625 C-114.3423106 59.56908791 -123.32188715 35.96897952 -122 11 C-121.11957031 11.42152344 -120.23914063 11.84304687 -119.33203125 12.27734375 C-118.17058594 12.82519531 -117.00914063 13.37304688 -115.8125 13.9375 C-114.08966797 14.75541016 -114.08966797 14.75541016 -112.33203125 15.58984375 C-102.82934462 19.61149659 -90.08916655 19.72547614 -80.5 15.875 C-72.71657316 12.08471669 -66.17637594 8.0131545 -61 1 C-57.98165614 2.32781221 -56.24275288 3.68626214 -54.125 6.1875 C-47.21300795 13.37055056 -36.45936691 18.02136971 -26.56811523 18.29199219 C-15.49677751 18.40177762 -6.42008847 15.99460175 3 10 C3 15.28 3 20.56 3 26 C5.34833507 20.5205515 6.37756284 18.07938146 6.6875 12.5625 C6.78611328 10.98662109 6.78611328 10.98662109 6.88671875 9.37890625 C6.92410156 8.59386719 6.96148437 7.80882813 7 7 C4.69 7 2.38 7 0 7 C0 4.69 0 2.38 0 0 Z " fill="#1C3560" transform="translate(178,69)"/>
<path d="M0 0 C1.40144005 -0.00934319 1.40144005 -0.00934319 2.83119202 -0.01887512 C3.83750168 -0.00966537 4.84381134 -0.00045563 5.88061523 0.0090332 C6.91484116 0.0085347 7.94906708 0.00803619 9.01463318 0.00752258 C11.20101849 0.00986348 13.38740647 0.01959287 15.57373047 0.03613281 C18.92952425 0.05974631 22.28452502 0.05669116 25.64038086 0.05004883 C27.76213041 0.05562471 29.8838766 0.06273403 32.00561523 0.0715332 C33.01394913 0.0706218 34.02228302 0.06971039 35.06117249 0.06877136 C35.99231369 0.07830338 36.9234549 0.08783539 37.8828125 0.09765625 C38.70427261 0.10226364 39.52573273 0.10687103 40.37208557 0.11161804 C42.37670898 0.37231445 42.37670898 0.37231445 44.37670898 2.37231445 C44.56400651 4.94158476 44.63245541 7.40105422 44.60717773 9.9699707 C44.60671951 10.71943466 44.60626129 11.46889862 44.60578918 12.24107361 C44.60276709 13.82560814 44.59488205 15.41013972 44.58251953 16.99462891 C44.56425582 19.42857303 44.56200988 21.86213707 44.56225586 24.29614258 C44.55734099 25.83325526 44.55151281 27.37036536 44.54467773 28.9074707 C44.54356491 29.6397438 44.54245209 30.37201691 44.54130554 31.1264801 C44.49276137 36.25626207 44.49276137 36.25626207 43.37670898 37.37231445 C41.81498154 37.45917048 40.24941554 37.47933665 38.68530273 37.4699707 C37.74106445 37.46674805 36.79682617 37.46352539 35.82397461 37.46020508 C34.83075195 37.45182617 33.8375293 37.44344727 32.81420898 37.43481445 C31.81711914 37.43030273 30.8200293 37.42579102 29.79272461 37.42114258 C27.3206605 37.40931452 24.84871381 37.39283295 22.37670898 37.37231445 C22.37670898 38.69231445 22.37670898 40.01231445 22.37670898 41.37231445 C24.02670898 41.70231445 25.67670898 42.03231445 27.37670898 42.37231445 C27.37670898 43.36231445 27.37670898 44.35231445 27.37670898 45.37231445 C26.38670898 45.70231445 25.39670898 46.03231445 24.37670898 46.37231445 C25.36670898 47.03231445 26.35670898 47.69231445 27.37670898 48.37231445 C24.20124996 49.4308008 21.83662102 49.53902323 18.50170898 49.55981445 C17.47303711 49.57399414 16.44436523 49.58817383 15.38452148 49.6027832 C12.28710986 49.36544907 10.1291162 48.79563134 7.37670898 47.37231445 C6.56420898 45.24731445 6.56420898 45.24731445 6.37670898 43.37231445 C9.74768282 41.87410386 11.58113018 41.37231445 15.37670898 41.37231445 C15.37670898 40.05231445 15.37670898 38.73231445 15.37670898 37.37231445 C14.43819092 37.3880249 14.43819092 37.3880249 13.48071289 37.40405273 C10.65441888 37.44554637 7.82818888 37.47161918 5.00170898 37.49731445 C4.01686523 37.51407227 3.03202148 37.53083008 2.01733398 37.5480957 C1.07631836 37.55454102 0.13530273 37.56098633 -0.83422852 37.56762695 C-2.1381958 37.5833374 -2.1381958 37.5833374 -3.46850586 37.59936523 C-5.62329102 37.37231445 -5.62329102 37.37231445 -7.62329102 35.37231445 C-8.0235752 30.82971168 -7.95229752 26.27264805 -7.93896484 21.71435547 C-7.93580778 19.44685698 -7.95924862 17.18066685 -7.98461914 14.91333008 C-7.98689243 13.4738786 -7.98759549 12.03442361 -7.98657227 10.5949707 C-7.98955322 9.28278564 -7.99253418 7.97060059 -7.99560547 6.61865234 C-7.62329102 3.37231445 -7.62329102 3.37231445 -6.38897705 1.69268799 C-4.11897591 -0.00481053 -2.81844575 -0.00215748 0 0 Z " fill="#EFF1F3" transform="translate(109.623291015625,92.627685546875)"/>
<path d="M0 0 C2.31 0 4.62 0 7 0 C7.12375 0.721875 7.2475 1.44375 7.375 2.1875 C7.87813041 4.9637324 7.87813041 4.9637324 9.0625 7.1875 C12.16814837 16.5044451 8.94439902 25.03546178 4.78515625 33.4609375 C-1.8566465 45.35842765 -11.22550496 54.81663162 -22 63 C-22.73347656 63.63292969 -23.46695313 64.26585937 -24.22265625 64.91796875 C-27.49549106 67.67370827 -29.06440874 68.98298925 -33.4375 69.0625 C-37.6619779 67.80256799 -41.85258668 66.49532589 -46 65 C-46 63.68 -46 62.36 -46 61 C-35.605 60.505 -35.605 60.505 -25 60 C-24.9770898 55.17612933 -24.95716314 50.35244611 -24.94506836 45.52856445 C-24.94002826 43.88630536 -24.93319622 42.24405077 -24.92456055 40.60180664 C-24.91248074 38.24624521 -24.90676861 35.89074291 -24.90234375 33.53515625 C-24.89718246 32.79660904 -24.89202118 32.05806183 -24.88670349 31.2971344 C-24.8865075 29.53101912 -24.93805281 27.76502854 -25 26 C-26.58358604 24.41641396 -28.1999036 24.86486337 -30.39624023 24.85473633 C-31.79790688 24.84516655 -31.79790688 24.84516655 -33.22789001 24.83540344 C-34.24452225 24.83429062 -35.26115448 24.8331778 -36.30859375 24.83203125 C-37.34564957 24.82870285 -38.38270538 24.82537445 -39.45118713 24.82194519 C-41.64950109 24.8168714 -43.84782277 24.814537 -46.04614258 24.81469727 C-49.41956201 24.81251162 -52.79265417 24.79436286 -56.16601562 24.77539062 C-58.29687388 24.7724567 -60.42773369 24.7704719 -62.55859375 24.76953125 C-63.57320175 24.76234573 -64.58780975 24.75516022 -65.63316345 24.74775696 C-66.57076004 24.75083359 -67.50835663 24.75391022 -68.47436523 24.75708008 C-69.71560402 24.75494255 -69.71560402 24.75494255 -70.98191833 24.75276184 C-73.2282948 24.81771249 -73.2282948 24.81771249 -75 27 C-75.24515697 29.50375468 -75.37333658 31.90549479 -75.4140625 34.4140625 C-75.43342865 35.14370209 -75.4527948 35.87334167 -75.4727478 36.62509155 C-75.53258422 38.95827502 -75.57894423 41.29150773 -75.625 43.625 C-75.66317614 45.20575082 -75.70222765 46.78648076 -75.7421875 48.3671875 C-75.83828878 52.2446223 -75.92230412 56.12215449 -76 60 C-76.33 60 -76.66 60 -77 60 C-77.01981934 58.9805127 -77.03963867 57.96102539 -77.06005859 56.91064453 C-77.13602808 53.13467352 -77.22475809 49.35909227 -77.31738281 45.58349609 C-77.35570852 43.9481576 -77.39055507 42.31273376 -77.421875 40.67724609 C-77.46744842 38.3287909 -77.52545367 35.98092505 -77.5859375 33.6328125 C-77.60326431 32.53273361 -77.60326431 32.53273361 -77.62094116 31.41043091 C-77.61868097 27.25022895 -77.61868097 27.25022895 -80 24 C-82.89967757 23.69324768 -85.71783178 23.48826629 -88.625 23.375 C-89.42679687 23.33632812 -90.22859375 23.29765625 -91.0546875 23.2578125 C-93.03607556 23.16346069 -95.01800645 23.08063785 -97 23 C-97 22.67 -97 22.34 -97 22 C-92.05 21.67 -87.1 21.34 -82 21 C-81.67 19.35 -81.34 17.7 -81 16 C-79.03125 14.69921875 -79.03125 14.69921875 -76.5 13.6875 C-70.64259254 11.04113174 -63.96886931 6.93773863 -61 1 C-57.98165614 2.32781221 -56.24275288 3.68626214 -54.125 6.1875 C-47.21300795 13.37055056 -36.45936691 18.02136971 -26.56811523 18.29199219 C-15.49677751 18.40177762 -6.42008847 15.99460175 3 10 C3 15.28 3 20.56 3 26 C5.34833507 20.5205515 6.37756284 18.07938146 6.6875 12.5625 C6.75324219 11.51191406 6.81898438 10.46132812 6.88671875 9.37890625 C6.92410156 8.59386719 6.96148437 7.80882813 7 7 C4.69 7 2.38 7 0 7 C0 4.69 0 2.38 0 0 Z " fill="#1A3259" transform="translate(178,69)"/>
<path d="M0 0 C1 3 1 3 -0.3359375 6.1875 C-1.00074899 7.46617828 -1.68153198 8.73663364 -2.375 10 C-2.74004639 10.67063477 -3.10509277 11.34126953 -3.48120117 12.03222656 C-10.1964458 24.00281792 -20.12588422 34.47801787 -30.75 43.125 C-33.36527265 45.28275451 -35.29271015 47.58976704 -37.3125 50.3125 C-44.57940635 59.91060419 -57.41504843 72.07757016 -69.8125 74.375 C-74.17324488 74.48722505 -76.87426272 72.41346393 -80.44897461 70.14306641 C-83.50913899 68.77186441 -85.19908297 68.91019933 -88.50390625 69.328125 C-94.89621751 70.01501917 -101.19873595 70.21834353 -107.625 70.25 C-109.20667969 70.2809375 -109.20667969 70.2809375 -110.8203125 70.3125 C-119.20145062 70.35399078 -127.69131026 69.53199147 -134.4375 64.0625 C-135.36369141 63.33740234 -135.36369141 63.33740234 -136.30859375 62.59765625 C-139.75624667 59.34109726 -141.34459321 56.71892892 -142 52 C-141.52691406 52.38671875 -141.05382812 52.7734375 -140.56640625 53.171875 C-127.92161221 63.12995842 -114.1445117 64.55938941 -98.46875 62.69970703 C-71.62529104 58.63486998 -44.46148372 45.86320007 -24 28 C-23.02289063 27.16726562 -22.04578125 26.33453125 -21.0390625 25.4765625 C-12.49257301 18.03920063 -5.73833922 9.8320454 0 0 Z " fill="#069A07" transform="translate(189,112)"/>
<path d="M0 0 C0.78052734 0.00322266 1.56105469 0.00644531 2.36523438 0.00976562 C3.53022461 -0.0144043 3.53022461 -0.0144043 4.71875 -0.0390625 C10.42164741 -0.04397456 10.42164741 -0.04397456 12.64981079 1.56848145 C14.2611358 3.77981578 14.30763047 5.02485655 14.31591797 7.74609375 C14.32537445 8.63711792 14.33483093 9.52814209 14.34457397 10.44616699 C14.33850128 11.40559204 14.33242859 12.36501709 14.32617188 13.35351562 C14.32904205 14.34097778 14.33191223 15.32843994 14.33486938 16.3458252 C14.33691112 18.43384372 14.33137362 20.52188133 14.31884766 22.60986328 C14.30279588 25.81000446 14.31869297 29.00888259 14.33789062 32.20898438 C14.33590821 34.23633092 14.33206458 36.26367668 14.32617188 38.29101562 C14.33224457 39.25044067 14.33831726 40.20986572 14.34457397 41.19836426 C14.33511749 42.08938843 14.32566101 42.9804126 14.31591797 43.8984375 C14.31353119 44.68214722 14.31114441 45.46585693 14.3086853 46.27331543 C13.82191437 48.89142011 13.07232233 49.77029069 10.92773438 51.32226562 C7.98840573 51.59318492 5.29667355 51.69558387 2.36523438 51.63476562 C1.58470703 51.63798828 0.80417969 51.64121094 0 51.64453125 C-5.80509582 51.58943543 -5.80509582 51.58943543 -8.07226562 49.32226562 C-8.32623291 47.31091309 -8.32623291 47.31091309 -8.33105469 44.8125 C-8.33735901 43.8781311 -8.34366333 42.94376221 -8.35015869 41.9810791 C-8.34611023 40.96960815 -8.34206177 39.95813721 -8.33789062 38.91601562 C-8.33980408 37.88037476 -8.34171753 36.84473389 -8.34368896 35.77770996 C-8.34505159 33.58536537 -8.34134976 31.39301274 -8.33300781 29.20068359 C-8.32230955 25.83607946 -8.33290066 22.47200931 -8.34570312 19.10742188 C-8.34438154 16.98111861 -8.34181918 14.85481567 -8.33789062 12.72851562 C-8.34193909 11.71704468 -8.34598755 10.70557373 -8.35015869 9.66345215 C-8.34385437 8.72908325 -8.33755005 7.79471436 -8.33105469 6.83203125 C-8.3294635 6.00755493 -8.32787231 5.18307861 -8.32623291 4.33361816 C-7.71122757 -0.53705862 -4.07408832 0.03866693 0 0 Z " fill="#F1F3F5" transform="translate(87.072265625,91.677734375)"/>
<path d="M0 0 C15.51 0 31.02 0 47 0 C47 5.94 47 11.88 47 18 C40.84841715 20.05052762 36.41576358 20.34620569 30.0625 20.3125 C29.04575195 20.31048584 28.02900391 20.30847168 26.98144531 20.30639648 C17.63208761 20.18291161 8.89784901 18.96594967 0 16 C0 10.72 0 5.44 0 0 Z " fill="#173057" transform="translate(105,96)"/>
<path d="M0 0 C0.66 0.33 1.32 0.66 2 1 C3.59262066 1.15175549 5.19064856 1.24900325 6.7890625 1.31640625 C7.73007813 1.35830078 8.67109375 1.40019531 9.640625 1.44335938 C10.62546875 1.48267578 11.6103125 1.52199219 12.625 1.5625 C13.61757812 1.60568359 14.61015625 1.64886719 15.6328125 1.69335938 C18.08839838 1.79961069 20.54408703 1.90164964 23 2 C23 3.32 23 4.64 23 6 C20.03 6.66 17.06 7.32 14 8 C15.45603573 11.98691266 15.45603573 11.98691266 17.734375 12.74609375 C20.59029416 13.06615366 23.37634961 13.09373533 26.25 13.0625 C27.86648437 13.04896484 27.86648437 13.04896484 29.515625 13.03515625 C30.74539062 13.01775391 30.74539062 13.01775391 32 13 C29.525 12.505 29.525 12.505 27 12 C27 11.67 27 11.34 27 11 C29.64 10.67 32.28 10.34 35 10 C35 9.01 35 8.02 35 7 C37.31 7.33 39.62 7.66 42 8 C42 8.66 42 9.32 42 10 C42.66 10.33 43.32 10.66 44 11 C31.65630455 18.29916288 19.19935649 25.10217214 5 28 C4.67 27.34 4.34 26.68 4 26 C5.65 25.34 7.3 24.68 9 24 C6.22719294 20.91910327 3.93673644 19.31224548 0 18 C0 17.34 0 16.68 0 16 C-1.32 15.67 -2.64 15.34 -4 15 C-3.34 14.01 -2.68 13.02 -2 12 C-1.57922598 9.29404578 -1.57922598 9.29404578 -1.4375 6.375 C-1.09817672 1.09817672 -1.09817672 1.09817672 0 0 Z " fill="#244277" transform="translate(102,128)"/>
<path d="M0 0 C1 3 1 3 -0.3359375 6.1875 C-1.00074899 7.46617828 -1.68153198 8.73663364 -2.375 10 C-2.74004639 10.67063477 -3.10509277 11.34126953 -3.48120117 12.03222656 C-10.21637247 24.0383392 -20.17490203 34.49895419 -30.8125 43.1875 C-34.55485511 46.26997124 -37.25220058 50.03431146 -40 54 C-40.33 52.68 -40.66 51.36 -41 50 C-42.051875 50.04125 -43.10375 50.0825 -44.1875 50.125 C-47.74010173 50.00852125 -49.84866641 49.52791932 -53 48 C-50.09715911 45.68793829 -47.03163583 43.80299624 -43.82348633 41.94384766 C-36.71548692 37.81673711 -30.20714299 33.41893436 -24 28 C-23.02289063 27.16726562 -22.04578125 26.33453125 -21.0390625 25.4765625 C-12.49257301 18.03920063 -5.73833922 9.8320454 0 0 Z " fill="#87C229" transform="translate(189,112)"/>
<path d="M0 0 C1.47906892 -0.02689216 2.95827483 -0.04634621 4.4375 -0.0625 C5.26121094 -0.07410156 6.08492187 -0.08570312 6.93359375 -0.09765625 C9 0 9 0 10 1 C10.08871273 4.02977804 10.1151935 7.03667022 10.09765625 10.06640625 C10.0962413 10.97502914 10.09482635 11.88365204 10.09336853 12.81980896 C10.08775193 15.73407221 10.07519665 18.64825981 10.0625 21.5625 C10.05748714 23.53320202 10.05292386 25.50390524 10.04882812 27.47460938 C10.03777711 32.31643559 10.02050138 37.15820495 10 42 C4.13861988 39.26473949 1.28090744 34.26179031 -1.05078125 28.32421875 C-2.297384 24.33627157 -3 21.21583743 -3 17 C0.96 17 4.92 17 9 17 C9 16.34 9 15.68 9 15 C5.04 15 1.08 15 -3 15 C-3 14.01 -3 13.02 -3 12 C0.63 12 4.26 12 8 12 C8 11.34 8 10.68 8 10 C4.37 10 0.74 10 -3 10 C-3 9.01 -3 8.02 -3 7 C0.63 7 4.26 7 8 7 C8 6.01 8 5.02 8 4 C5.03 4 2.06 4 -1 4 C-0.67 2.68 -0.34 1.36 0 0 Z " fill="#112B53" transform="translate(89,95)"/>
<path d="M0 0 C2.64 0 5.28 0 8 0 C8 1.32 8 2.64 8 4 C10.97 4 13.94 4 17 4 C17 5.65 17 7.3 17 9 C16.34 8.67 15.68 8.34 15 8 C15.33 7.01 15.66 6.02 16 5 C13.69 5 11.38 5 9 5 C9 7.31 9 9.62 9 12 C11.31 12 13.62 12 16 12 C16.4731614 19.88602342 16.17981006 25.20780865 12 32 C11.67 32 11.34 32 11 32 C11 26.72 11 21.44 11 16 C10.34 16.33 9.68 16.66 9 17 C7.0546875 16.66015625 7.0546875 16.66015625 4.875 16.0625 C4.15054688 15.86785156 3.42609375 15.67320313 2.6796875 15.47265625 C2.12539062 15.31667969 1.57109375 15.16070312 1 15 C0.15318867 9.91913204 -0.09038099 5.15171623 0 0 Z " fill="#D8DCE3" transform="translate(169,64)"/>
<path d="M0 0 C1.47906892 -0.02689216 2.95827483 -0.04634621 4.4375 -0.0625 C5.26121094 -0.07410156 6.08492187 -0.08570312 6.93359375 -0.09765625 C9 0 9 0 10 1 C10.08871273 4.02977804 10.1151935 7.03667022 10.09765625 10.06640625 C10.0962413 10.97502914 10.09482635 11.88365204 10.09336853 12.81980896 C10.08775193 15.73407221 10.07519665 18.64825981 10.0625 21.5625 C10.05748714 23.53320202 10.05292386 25.50390524 10.04882812 27.47460938 C10.03777711 32.31643559 10.02050138 37.15820495 10 42 C9.34 41.67 8.68 41.34 8 41 C8.33 33.41 8.66 25.82 9 18 C5.37 18 1.74 18 -2 18 C-2.33 18.99 -2.66 19.98 -3 21 C-3 19.68 -3 18.36 -3 17 C0.96 17 4.92 17 9 17 C9 16.34 9 15.68 9 15 C5.04 15 1.08 15 -3 15 C-3 14.01 -3 13.02 -3 12 C0.63 12 4.26 12 8 12 C8 11.34 8 10.68 8 10 C4.37 10 0.74 10 -3 10 C-3 9.01 -3 8.02 -3 7 C0.63 7 4.26 7 8 7 C8 6.01 8 5.02 8 4 C5.03 4 2.06 4 -1 4 C-0.67 2.68 -0.34 1.36 0 0 Z " fill="#5E708B" transform="translate(89,95)"/>
<path d="M0 0 C1 3 1 3 -0.3359375 6.1875 C-1.00100382 7.46604575 -1.68175011 8.73651393 -2.375 10 C-2.737146 10.66773437 -3.09929199 11.33546875 -3.47241211 12.0234375 C-8.58587544 21.16267263 -15.40162488 28.84140222 -23 36 C-23.99 35.67 -24.98 35.34 -26 35 C-26 34.34 -26 33.68 -26 33 C-26.66 32.67 -27.32 32.34 -28 32 C-27.56244385 31.60844727 -27.1248877 31.21689453 -26.67407227 30.81347656 C-16.21272887 21.39290554 -7.17669716 12.2335084 0 0 Z " fill="#199E19" transform="translate(189,112)"/>
<path d="M0 0 C0.33 0 0.66 0 1 0 C1.00808685 0.54679413 1.01617371 1.09358826 1.02450562 1.6569519 C1.11038769 7.33453114 1.20988325 13.0117546 1.31738281 18.68896484 C1.35572842 20.8093469 1.39057133 22.92979526 1.421875 25.05029297 C1.46740466 28.09366598 1.52541839 31.13658032 1.5859375 34.1796875 C1.59748871 35.13181122 1.60903992 36.08393494 1.62094116 37.06491089 C1.64081085 37.94567291 1.66068054 38.82643494 1.68115234 39.73388672 C1.69447601 40.51110077 1.70779968 41.28831482 1.7215271 42.08908081 C1.84039576 44.2388947 1.84039576 44.2388947 4 46 C6.73434962 46.3063859 9.38279821 46.5113336 12.125 46.625 C12.87910156 46.66367188 13.63320312 46.70234375 14.41015625 46.7421875 C16.27303184 46.83651031 18.13648255 46.91934662 20 47 C20 47.33 20 47.66 20 48 C12.08 48.495 12.08 48.495 4 49 C3.01 51.475 3.01 51.475 2 54 C1.505 52.515 1.505 52.515 1 51 C0.34 51 -0.32 51 -1 51 C-1 50.34 -1 49.68 -1 49 C-2.32 48.67 -3.64 48.34 -5 48 C-5.625 45.625 -5.625 45.625 -6 43 C-5.34 42.34 -4.68 41.68 -4 41 C-4 41.66 -4 42.32 -4 43 C-2.515 42.505 -2.515 42.505 -1 42 C-0.67 28.14 -0.34 14.28 0 0 Z " fill="#112C56" transform="translate(77,96)"/>
<path d="M0 0 C0.47308594 0.38671875 0.94617187 0.7734375 1.43359375 1.171875 C7.97148948 6.32062719 14.58419674 10.13684069 23 11 C23.33 12.32 23.66 13.64 24 15 C23.01 15 22.02 15 21 15 C21 15.66 21 16.32 21 17 C13.26228223 16.67073541 7.83250927 12.903322 2.5 7.4375 C0.93693008 4.89751137 0.33689067 2.94779336 0 0 Z " fill="#099A0A" transform="translate(47,164)"/>
<path d="M0 0 C1.125 3.75 1.125 3.75 0 6 C-0.66 6 -1.32 6 -2 6 C-0.68 7.65 0.64 9.3 2 11 C1.67 11.33 1.34 11.66 1 12 C0.84019563 14.44608998 0.74070553 16.86731058 0.68359375 19.31640625 C0.66281265 20.04746078 0.64203156 20.77851532 0.62062073 21.53172302 C0.55504976 23.87521656 0.49620568 26.21882539 0.4375 28.5625 C0.39432192 30.14779855 0.35070787 31.73308529 0.30664062 33.31835938 C0.1993608 37.21212037 0.0981151 41.10599772 0 45 C-0.33 45 -0.66 45 -1 45 C-1.01981934 43.9805127 -1.03963867 42.96102539 -1.06005859 41.91064453 C-1.13602808 38.13467352 -1.22475809 34.35909227 -1.31738281 30.58349609 C-1.35570852 28.9481576 -1.39055507 27.31273376 -1.421875 25.67724609 C-1.46744842 23.3287909 -1.52545367 20.98092505 -1.5859375 18.6328125 C-1.59748871 17.89942657 -1.60903992 17.16604065 -1.62094116 16.41043091 C-1.61868097 12.25022895 -1.61868097 12.25022895 -4 9 C-6.89967757 8.69324768 -9.71783178 8.48826629 -12.625 8.375 C-13.42679687 8.33632812 -14.22859375 8.29765625 -15.0546875 8.2578125 C-17.03607556 8.16346069 -19.01800645 8.08063785 -21 8 C-21 7.67 -21 7.34 -21 7 C-16.05 6.67 -11.1 6.34 -6 6 C-5.67 4.35 -5.34 2.7 -5 1 C-3 0 -3 0 0 0 Z " fill="#153263" transform="translate(102,84)"/>
<path d="M0 0 C2.31 0.33 4.62 0.66 7 1 C7 1.66 7 2.32 7 3 C7.66 3.33 8.32 3.66 9 4 C3.1947894 7.92464942 -0.77003849 10.59020094 -8 10 C-8.99 10.66 -9.98 11.32 -11 12 C-11.66 11.67 -12.32 11.34 -13 11 C-13 10.34 -13 9.68 -13 9 C-13.66 8.34 -14.32 7.68 -15 7 C-9.06 6.505 -9.06 6.505 -3 6 C-4.65 5.67 -6.3 5.34 -8 5 C-8 4.67 -8 4.34 -8 4 C-5.36 3.67 -2.72 3.34 0 3 C0 2.01 0 1.02 0 0 Z " fill="#1C345C" transform="translate(137,135)"/>
<path d="M0 0 C2.31 0.66 4.62 1.32 7 2 C7 17.51 7 33.02 7 49 C6.67 49 6.34 49 6 49 C5.67 43.39 5.34 37.78 5 32 C4.67 32 4.34 32 4 32 C3.67 22.76 3.34 13.52 3 4 C2.01 3.67 1.02 3.34 0 3 C0 2.01 0 1.02 0 0 Z " fill="#4B6289" transform="translate(72,91)"/>
<path d="M0 0 C3.63 1.65 7.26 3.3 11 5 C10.01 5.99 9.02 6.98 8 8 C7.34 8 6.68 8 6 8 C5.896875 8.515625 5.79375 9.03125 5.6875 9.5625 C4.75736134 12.86026435 3.38604488 15.86633332 2 19 C1.67 19 1.34 19 1 19 C-0.1569412 12.6368234 -0.07262865 6.46395007 0 0 Z " fill="#233D69" transform="translate(56,80)"/>
<path d="M0 0 C0 1.32 0 2.64 0 4 C-3.31070838 5.00109515 -6.30084769 5.10356134 -9.75 5.0625 C-10.73484375 5.05347656 -11.7196875 5.04445313 -12.734375 5.03515625 C-13.48203125 5.02355469 -14.2296875 5.01195313 -15 5 C-15.33 5.99 -15.66 6.98 -16 8 C-22.875 4.375 -22.875 4.375 -24 1 C-23.15236084 1.00785522 -23.15236084 1.00785522 -22.28759766 1.01586914 C-19.7334097 1.03662422 -17.17923947 1.0496554 -14.625 1.0625 C-13.73554687 1.07087891 -12.84609375 1.07925781 -11.9296875 1.08789062 C-11.07890625 1.09111328 -10.228125 1.09433594 -9.3515625 1.09765625 C-8.17327881 1.10551147 -8.17327881 1.10551147 -6.97119141 1.11352539 C-4.30116533 0.95975252 -2.811674 0 0 0 Z " fill="#28467A" transform="translate(96,86)"/>
<path d="M0 0 C2.475 0.99 2.475 0.99 5 2 C1.79239749 5.80635497 -1.40746109 9.54563567 -5 13 C-5.99 12.67 -6.98 12.34 -8 12 C-8 11.34 -8 10.68 -8 10 C-8.66 9.67 -9.32 9.34 -10 9 C-6.7 6.03 -3.4 3.06 0 0 Z " fill="#49AE1A" transform="translate(171,135)"/>
<path d="M0 0 C6.90939597 6.67114094 6.90939597 6.67114094 7.1875 10.75 C7.125625 11.4925 7.06375 12.235 7 13 C-0.57033248 11.56777494 -0.57033248 11.56777494 -2.75 8.6875 C-4 6 -4 6 -3.6875 3.6875 C-3.460625 3.130625 -3.23375 2.57375 -3 2 C-2.34 2 -1.68 2 -1 2 C-0.67 1.34 -0.34 0.68 0 0 Z " fill="#1E355C" transform="translate(57,140)"/>
<path d="M0 0 C3 1 3 1 4.1875 3.0625 C4.455625 3.701875 4.72375 4.34125 5 5 C3.90398831 6.00893131 2.79786082 7.00688225 1.6875 8 C1.07261719 8.556875 0.45773438 9.11375 -0.17578125 9.6875 C-2 11 -2 11 -5 11 C-5 10.34 -5 9.68 -5 9 C-6.32 8.34 -7.64 7.68 -9 7 C-7.57277341 5.8001722 -6.13284224 4.6154424 -4.6875 3.4375 C-3.88699219 2.77621094 -3.08648437 2.11492187 -2.26171875 1.43359375 C-1.51535156 0.96050781 -0.76898438 0.48742187 0 0 Z " fill="#72B924" transform="translate(160,144)"/>
<path d="M0 0 C6.27 0 12.54 0 19 0 C18.01 0.33 17.02 0.66 16 1 C16 1.66 16 2.32 16 3 C15.01 3.33 14.02 3.66 13 4 C13.99 5.485 13.99 5.485 15 7 C9.7415998 6.32584613 4.97361654 4.75734451 0 3 C0 2.01 0 1.02 0 0 Z " fill="#142D54" transform="translate(132,131)"/>
<path d="M0 0 C2.31 0 4.62 0 7 0 C7.12375 0.721875 7.2475 1.44375 7.375 2.1875 C7.87813041 4.9637324 7.87813041 4.9637324 9.0625 7.1875 C10.47228741 11.41686222 10.15446383 15.58061806 10 20 C7.37629764 16.99754796 6.63697652 15.22853212 6.8125 11.25 C6.85310547 10.05117187 6.85310547 10.05117187 6.89453125 8.828125 C6.94673828 7.92320313 6.94673828 7.92320313 7 7 C4.69 7 2.38 7 0 7 C0 4.69 0 2.38 0 0 Z " fill="#3B4D70" transform="translate(178,69)"/>
<path d="M0 0 C6.27 0 12.54 0 19 0 C19 0.99 19 1.98 19 3 C18.37351562 3.19335938 17.74703125 3.38671875 17.1015625 3.5859375 C16.28429687 3.84632813 15.46703125 4.10671875 14.625 4.375 C13.81289062 4.63023437 13.00078125 4.88546875 12.1640625 5.1484375 C9.83540815 5.89854283 9.83540815 5.89854283 8 8 C7.34 7.67 6.68 7.34 6 7 C5.375 4.4375 5.375 4.4375 5 2 C3.35 1.67 1.7 1.34 0 1 C0 0.67 0 0.34 0 0 Z " fill="#1A3666" transform="translate(106,131)"/>
<path d="M0 0 C2.79224073 -0.08071788 5.58216566 -0.14035408 8.375 -0.1875 C9.1690625 -0.21263672 9.963125 -0.23777344 10.78125 -0.26367188 C12.85586148 -0.29004405 14.93100865 -0.15486462 17 0 C17.66 0.99 18.32 1.98 19 3 C16.59454362 4.20272819 15.05003047 4.10071472 12.375 4.0625 C11.14910156 4.04896484 11.14910156 4.04896484 9.8984375 4.03515625 C8.95871094 4.01775391 8.95871094 4.01775391 8 4 C7.67 4.99 7.34 5.98 7 7 C9.97 7 12.94 7 16 7 C16 7.33 16 7.66 16 8 C12.7 8 9.4 8 6 8 C5.67 6.68 5.34 5.36 5 4 C5.66 3.01 6.32 2.02 7 1 C4.69 1 2.38 1 0 1 C0 0.67 0 0.34 0 0 Z " fill="#BDC4D2" transform="translate(81,92)"/>
<path d="M0 0 C0.66 0.33 1.32 0.66 2 1 C1.67 1.66 1.34 2.32 1 3 C1.66 3 2.32 3 3 3 C3.36256858 4.4562672 3.71479793 5.91511185 4.0625 7.375 C4.25972656 8.18710938 4.45695312 8.99921875 4.66015625 9.8359375 C5 12 5 12 4 14 C4.99 14 5.98 14 7 14 C6.67 14.99 6.34 15.98 6 17 C1.4371756 13.17709307 -1.1783928 9.01011298 -2 3 C-1.34 2.01 -0.68 1.02 0 0 Z " fill="#1F365C" transform="translate(90,118)"/>
<path d="M0 0 C0.33 0 0.66 0 1 0 C1 1.98 1 3.96 1 6 C2.423125 5.9690625 2.423125 5.9690625 3.875 5.9375 C7 6 7 6 9 7 C9 7.66 9 8.32 9 9 C5.7 10.32 2.4 11.64 -1 13 C-0.67 8.71 -0.34 4.42 0 0 Z " fill="#E6EAED" transform="translate(169,73)"/>
<path d="M0 0 C2.31 0 4.62 0 7 0 C7 2.31 7 4.62 7 7 C4.69 7 2.38 7 0 7 C0 4.69 0 2.38 0 0 Z " fill="#142D55" transform="translate(169,64)"/>
<path d="M0 0 C-0.639375 0.12375 -1.27875 0.2475 -1.9375 0.375 C-2.618125 0.58125 -3.29875 0.7875 -4 1 C-4.33 1.66 -4.66 2.32 -5 3 C-5.33 3.66 -5.66 4.32 -6 5 C-5.34 5.66 -4.68 6.32 -4 7 C-4.66 7 -5.32 7 -6 7 C-6 14.26 -6 21.52 -6 29 C-6.33 29 -6.66 29 -7 29 C-7.06058594 27.69804688 -7.12117187 26.39609375 -7.18359375 25.0546875 C-7.26804562 23.32811601 -7.35269126 21.601554 -7.4375 19.875 C-7.47681641 19.0190625 -7.51613281 18.163125 -7.55664062 17.28125 C-7.73845035 13.64505546 -7.9716919 10.16244782 -8.59765625 6.5703125 C-9 4 -9 4 -8 1 C-5.07175348 0.02391783 -3.04386724 -0.08226668 0 0 Z " fill="#132D52" transform="translate(164,88)"/>
<path d="M0 0 C1.65 0.33 3.3 0.66 5 1 C4.67 1.66 4.34 2.32 4 3 C4.5775 2.62875 5.155 2.2575 5.75 1.875 C6.86375 1.441875 6.86375 1.441875 8 1 C10.140625 1.9453125 10.140625 1.9453125 12 3 C10.23494565 3.86604534 8.46271926 4.71748642 6.6875 5.5625 C5.20830078 6.27599609 5.20830078 6.27599609 3.69921875 7.00390625 C1 8 1 8 -2 7 C-2 6.01 -2 5.02 -2 4 C-1.01 4 -0.02 4 1 4 C0.67 2.68 0.34 1.36 0 0 Z " fill="#223C6A" transform="translate(122,143)"/>
<path d="M0 0 C6.6 0 13.2 0 20 0 C20 1.65 20 3.3 20 5 C17.5 6.8125 17.5 6.8125 15 8 C13.68 6.68 12.36 5.36 11 4 C12.65 4 14.3 4 16 4 C16 3.34 16 2.68 16 2 C10.72 1.67 5.44 1.34 0 1 C0 0.67 0 0.34 0 0 Z " fill="#475B7B" transform="translate(132,130)"/>
<path d="M0 0 C4 3 8 6 12 9 C9.525 10.485 9.525 10.485 7 12 C0.29612756 4.88610478 0.29612756 4.88610478 0 0 Z " fill="#1A9E1A" transform="translate(47,164)"/>
<path d="M0 0 C0.33 0 0.66 0 1 0 C1.4731614 7.88602342 1.17981006 13.20780865 -3 20 C-3.33 20 -3.66 20 -4 20 C-4.28571429 11.42857143 -4.28571429 11.42857143 -2 8 C-1.34 8 -0.68 8 0 8 C0 5.36 0 2.72 0 0 Z " fill="#D6DCE1" transform="translate(184,76)"/>
<path d="M0 0 C0.66 0.33 1.32 0.66 2 1 C3.59262066 1.15175549 5.19064856 1.24900325 6.7890625 1.31640625 C7.73007813 1.35830078 8.67109375 1.40019531 9.640625 1.44335938 C10.62546875 1.48267578 11.6103125 1.52199219 12.625 1.5625 C13.61757812 1.60568359 14.61015625 1.64886719 15.6328125 1.69335938 C18.08839838 1.79961069 20.54408703 1.90164964 23 2 C23 2.33 23 2.66 23 3 C22.44538086 3.02505615 21.89076172 3.0501123 21.31933594 3.07592773 C18.79601157 3.19227927 16.27302464 3.31482754 13.75 3.4375 C12.44095703 3.49647461 12.44095703 3.49647461 11.10546875 3.55664062 C10.26113281 3.59853516 9.41679688 3.64042969 8.546875 3.68359375 C7.77182617 3.72025146 6.99677734 3.75690918 6.19824219 3.79467773 C4.0425024 3.99603015 2.08198525 4.41729297 0 5 C-0.33 6.32 -0.66 7.64 -1 9 C-1.09765625 2.84765625 -1.09765625 2.84765625 -1 1 C-0.67 0.67 -0.34 0.34 0 0 Z " fill="#506891" transform="translate(102,128)"/>
<path d="M0 0 C2.97 0 5.94 0 9 0 C9 1.32 9 2.64 9 4 C5.7 4 2.4 4 -1 4 C-0.67 2.68 -0.34 1.36 0 0 Z " fill="#152F57" transform="translate(89,95)"/>
<path d="M0 0 C2 1.1875 2 1.1875 4 3 C4.25 5.6875 4.25 5.6875 4 8 C-0.75 7.25 -0.75 7.25 -3 5 C-2.75 2.9375 -2.75 2.9375 -2 1 C-1.34 0.67 -0.68 0.34 0 0 Z " fill="#152E54" transform="translate(60,145)"/>
<path d="M0 0 C0 0.99 0 1.98 0 3 C-2 5 -2 5 -5.625 5.125 C-6.73875 5.08375 -7.8525 5.0425 -9 5 C-9.33 3.68 -9.66 2.36 -10 1 C-6.59437148 0.22157062 -3.49234244 -0.09978121 0 0 Z " fill="#119D11" transform="translate(98,174)"/>
<path d="M0 0 C0.33 0.99 0.66 1.98 1 3 C2.65 3 4.3 3 6 3 C6 3.33 6 3.66 6 4 C4.23103898 4.36340286 2.45973374 4.71540883 0.6875 5.0625 C-0.29863281 5.25972656 -1.28476563 5.45695313 -2.30078125 5.66015625 C-5 6 -5 6 -8 5 C-8 4.34 -8 3.68 -8 3 C-7.01 3 -6.02 3 -5 3 C-5 2.34 -5 1.68 -5 1 C-3.35 0.67 -1.7 0.34 0 0 Z " fill="#142D55" transform="translate(79,153)"/>
<path d="M0 0 C3.96 0 7.92 0 12 0 C12 0.99 12 1.98 12 3 C8.04 3 4.08 3 0 3 C0 2.01 0 1.02 0 0 Z " fill="#374A6B" transform="translate(86,107)"/>
<path d="M0 0 C1.98 0 3.96 0 6 0 C6 1.98 6 3.96 6 6 C4.02 6 2.04 6 0 6 C0 4.02 0 2.04 0 0 Z " fill="#20375C" transform="translate(170,73)"/>
<path d="M0 0 C0.99 0.33 1.98 0.66 3 1 C2.6189482 3.76262553 2.16402868 4.84143894 0.125 6.8125 C-0.57625 7.204375 -1.2775 7.59625 -2 8 C-2.99 7.67 -3.98 7.34 -5 7 C-3.70700306 4.11562221 -2.34058637 2.12780579 0 0 Z " fill="#159D0E" transform="translate(177,129)"/>
<path d="M0 0 C2.97 0 5.94 0 9 0 C9 1.98 9 3.96 9 6 C8.67 5.01 8.34 4.02 8 3 C5.36 3 2.72 3 0 3 C-0.33 4.32 -0.66 5.64 -1 7 C-0.67 4.69 -0.34 2.38 0 0 Z " fill="#20365E" transform="translate(88,114)"/>
<path d="M0 0 C1.9375 0.3125 1.9375 0.3125 4 1 C4.33 1.99 4.66 2.98 5 4 C4.01 4 3.02 4 2 4 C2 4.66 2 5.32 2 6 C-0.31 5.67 -2.62 5.34 -5 5 C-5 4.34 -5 3.68 -5 3 C-3.35 2.67 -1.7 2.34 0 2 C0 1.34 0 0.68 0 0 Z " fill="#149E14" transform="translate(66,175)"/>
<path d="M0 0 C3 1 3 1 4.1875 3.0625 C4.455625 3.701875 4.72375 4.34125 5 5 C3.35 6.32 1.7 7.64 0 9 C-0.144375 8.38125 -0.28875 7.7625 -0.4375 7.125 C-0.93152225 4.96741678 -0.93152225 4.96741678 -2 3 C-1.34 2.01 -0.68 1.02 0 0 Z " fill="#64B824" transform="translate(160,144)"/>
<path d="M0 0 C0 1.32 0 2.64 0 4 C-7.75 5.125 -7.75 5.125 -10 4 C-10 3.34 -10 2.68 -10 2 C-3.375 0 -3.375 0 0 0 Z " fill="#244071" transform="translate(96,86)"/>
<path d="M0 0 C1.32 0.33 2.64 0.66 4 1 C3.6875 2.9375 3.6875 2.9375 3 5 C0.00468461 5.99843846 -1.17255732 6.00732761 -4.1875 5.5625 C-5.445625 5.376875 -6.70375 5.19125 -8 5 C-8 4.67 -8 4.34 -8 4 C-5.36 3.67 -2.72 3.34 0 3 C0 2.01 0 1.02 0 0 Z " fill="#8691A5" transform="translate(137,135)"/>
<path d="M0 0 C2.31 0 4.62 0 7 0 C6 2 5 4 4 6 C2.68 6 1.36 6 0 6 C0 4.02 0 2.04 0 0 Z " fill="#132A51" transform="translate(178,69)"/>
<path d="M0 0 C0.94875 0.350625 1.8975 0.70125 2.875 1.0625 C2.875 1.7225 2.875 2.3825 2.875 3.0625 C0.565 3.3925 -1.745 3.7225 -4.125 4.0625 C-4.455 2.7425 -4.785 1.4225 -5.125 0.0625 C-3.125 -0.9375 -3.125 -0.9375 0 0 Z " fill="#162E57" transform="translate(70.125,151.9375)"/>
<path d="M0 0 C0.98484375 0.11988281 1.9696875 0.23976562 2.984375 0.36328125 C3.73203125 0.47027344 4.4796875 0.57726562 5.25 0.6875 C1.72320901 3.03869399 0.22120515 2.90193452 -3.9375 2.8125 C-5.02417969 2.79445312 -6.11085938 2.77640625 -7.23046875 2.7578125 C-8.47763672 2.72300781 -8.47763672 2.72300781 -9.75 2.6875 C-6.40914528 -0.40676782 -4.45291069 -0.58311926 0 0 Z " fill="#C1C9D5" transform="translate(131.75,139.3125)"/>
<path d="M0 0 C2.475 0.99 2.475 0.99 5 2 C3.68 3.65 2.36 5.3 1 7 C0.01 6.67 -0.98 6.34 -2 6 C-2 3 -2 3 0 0 Z " fill="#30A816" transform="translate(171,135)"/>
<path d="M0 0 C0.33 0 0.66 0 1 0 C1.02694851 1.95825873 1.04637218 3.91662226 1.0625 5.875 C1.07410156 6.96554688 1.08570313 8.05609375 1.09765625 9.1796875 C1 12 1 12 0 14 C-0.66 14 -1.32 14 -2 14 C-1.03644647 4.58997722 -1.03644647 4.58997722 0 0 Z " fill="#112B53" transform="translate(186,80)"/>
<path d="M0 0 C0.33 0 0.66 0 1 0 C1.75 3.25 1.75 3.25 2 7 C0.1875 9.4375 0.1875 9.4375 -2 11 C-2.66 11 -3.32 11 -4 11 C-3.67 9.68 -3.34 8.36 -3 7 C-2.34 7 -1.68 7 -1 7 C-0.67 4.69 -0.34 2.38 0 0 Z " fill="#2E4366" transform="translate(56,133)"/>
<path d="M0 0 C0.66 0.66 1.32 1.32 2 2 C-1.29334787 4.16420003 -4.02867481 5.67800066 -8 6 C-8.66 5.34 -9.32 4.68 -10 4 C-6.7 2.68 -3.4 1.36 0 0 Z " fill="#273C62" transform="translate(176,82)"/>
<path d="M0 0 C2 2 2 2 2.125 4.625 C2.08375 5.40875 2.0425 6.1925 2 7 C0.02 6.34 -1.96 5.68 -4 5 C-3.34 4.01 -2.68 3.02 -2 2 C-1.34 2 -0.68 2 0 2 C0 1.34 0 0.68 0 0 Z " fill="#2C4A84" transform="translate(102,138)"/>
<path d="M0 0 C2.31 0 4.62 0 7 0 C5.35 1.98 3.7 3.96 2 6 C1.34 5.67 0.68 5.34 0 5 C0 3.35 0 1.7 0 0 Z " fill="#1B9E1B" transform="translate(141,166)"/>
<path d="M0 0 C0.33 0 0.66 0 1 0 C1 2.97 1 5.94 1 9 C0.01 8.67 -0.98 8.34 -2 8 C-2.33 8.99 -2.66 9.98 -3 11 C-2.53199289 6.94393835 -2.12046792 3.53411321 0 0 Z " fill="#36496A" transform="translate(55,122)"/>
<path d="M0 0 C1 3 1 3 0.22265625 5.04296875 C-0.16019531 5.75066406 -0.54304687 6.45835938 -0.9375 7.1875 C-1.31777344 7.90292969 -1.69804687 8.61835937 -2.08984375 9.35546875 C-2.54037109 10.16951172 -2.54037109 10.16951172 -3 11 C-3.99 10.34 -4.98 9.68 -6 9 C-4.02 6.03 -2.04 3.06 0 0 Z " fill="#49B049" transform="translate(189,112)"/>
<path d="M0 0 C2.30163882 3.45245824 2.34490322 4.94738713 2 9 C1.34 9.66 0.68 10.32 0 11 C-1.28571429 3.57142857 -1.28571429 3.57142857 0 0 Z " fill="#142E55" transform="translate(61,104)"/>
<path d="M0 0 C0 3 0 3 -1.125 5.125 C-3.60144222 7.60144222 -5.58060399 7.69605369 -9 8 C-6.17493137 5.0702992 -3.21203935 2.49825283 0 0 Z " fill="#E8ECF0" transform="translate(162,126)"/>
<path d="M0 0 C2.475 0.99 2.475 0.99 5 2 C3.71937515 3.7074998 2.38232443 5.37373596 1 7 C0.34 7 -0.32 7 -1 7 C-0.67 4.69 -0.34 2.38 0 0 Z " fill="#142C53" transform="translate(161,120)"/>
<path d="M0 0 C0.99 0 1.98 0 3 0 C3 2.64 3 5.28 3 8 C2.34 8 1.68 8 1 8 C0.67 8.66 0.34 9.32 0 10 C0 6.66666667 0 3.33333333 0 0 Z " fill="#FBFCFB" transform="translate(181,76)"/>
<path d="M0 0 C1.65 0.33 3.3 0.66 5 1 C5.33 2.65 5.66 4.3 6 6 C3.36 6 0.72 6 -2 6 C-1.360625 5.731875 -0.72125 5.46375 -0.0625 5.1875 C2.33131686 4.11332248 2.33131686 4.11332248 3 1 C2.01 0.67 1.02 0.34 0 0 Z " fill="#2B4065" transform="translate(180,70)"/>
<path d="M0 0 C1.98 0.495 1.98 0.495 4 1 C2.69593116 3.01920337 1.36176581 5.01924973 0 7 C-0.33 7 -0.66 7 -1 7 C-0.67 4.69 -0.34 2.38 0 0 Z " fill="#68B82F" transform="translate(149,159)"/>
<path d="M0 0 C1.9375 0.75 1.9375 0.75 4 2 C4.75 4.125 4.75 4.125 5 6 C4.01 6 3.02 6 2 6 C2 5.34 2 4.68 2 4 C0.68 3.34 -0.64 2.68 -2 2 C-1.34 1.34 -0.68 0.68 0 0 Z " fill="#7BC022" transform="translate(153,149)"/>
<path d="M0 0 C0.33 1.32 0.66 2.64 1 4 C1.66 4 2.32 4 3 4 C1.25 7.875 1.25 7.875 -1 9 C-0.67 6.03 -0.34 3.06 0 0 Z " fill="#263C61" transform="translate(183,90)"/>
<path d="M0 0 C0 0.99 0 1.98 0 3 C0.99 3.33 1.98 3.66 3 4 C-3.75 3.25 -3.75 3.25 -6 1 C-4 0 -4 0 0 0 Z " fill="#79C02E" transform="translate(142,158)"/>
<path d="M0 0 C0.66 0.33 1.32 0.66 2 1 C0.60667426 4.36720387 -0.9789286 5.9859524 -4 8 C-4 7.01 -4 6.02 -4 5 C-3.34 5 -2.68 5 -2 5 C-2 4.01 -2 3.02 -2 2 C-1.34 2 -0.68 2 0 2 C0 1.34 0 0.68 0 0 Z " fill="#EDF6E9" transform="translate(165,136)"/>
<path d="M0 0 C-0.33 0.99 -0.66 1.98 -1 3 C-3.0625 3.6875 -3.0625 3.6875 -5 4 C-5.33 3.01 -5.66 2.02 -6 1 C-4 0 -4 0 0 0 Z " fill="#1A9F1A" transform="translate(134,162)"/>
<path d="M0 0 C0.66 0.99 1.32 1.98 2 3 C1.34 4.32 0.68 5.64 0 7 C-1.32 6.67 -2.64 6.34 -4 6 C-2.68 4.02 -1.36 2.04 0 0 Z " fill="#EBF5E8" transform="translate(182,128)"/>
</svg>
