<svg id="Layer_1" data-name="Layer 1" xmlns="http://www.w3.org/2000/svg" xmlns:xlink="http://www.w3.org/1999/xlink" viewBox="0 0 661.04 863.32"><defs><style>.cls-1{fill:#fff;}.cls-1,.cls-10,.cls-11,.cls-12,.cls-13,.cls-14,.cls-15,.cls-16,.cls-17,.cls-18,.cls-2,.cls-3,.cls-4,.cls-5,.cls-6,.cls-7,.cls-8,.cls-9{stroke:#000;stroke-miterlimit:10;}.cls-1,.cls-2{stroke-width:8px;}.cls-2{fill:#ff0;}.cls-3{fill:#069547;}.cls-17,.cls-18,.cls-3{stroke-width:4px;}.cls-4{fill:#783d6f;}.cls-4,.cls-5,.cls-8,.cls-9{stroke-width:2px;}.cls-5{fill:#f5911e;}.cls-6{fill:#f15a2a;}.cls-7{fill:#30b44a;}.cls-8{fill:#008012;}.cls-9{fill:#c5b46c;}.cls-10{fill:#549630;}.cls-11{fill:#fcce0d;}.cls-12{fill:#fdfad6;}.cls-13{fill:#fdfad7;}.cls-14,.cls-16{fill:none;}.cls-15,.cls-16{stroke-width:6px;}.cls-15{fill:url(#linear-gradient);}.cls-17{fill:url(#linear-gradient-2);}.cls-18{fill:url(#linear-gradient-3);}</style><linearGradient id="linear-gradient" x1="523.03" y1="512" x2="786.37" y2="512" gradientUnits="userSpaceOnUse"><stop offset="0" stop-color="#ff0"/><stop offset="0.12" stop-color="#d4f835" stop-opacity="0.78"/><stop offset="0.24" stop-color="#acf165" stop-opacity="0.57"/><stop offset="0.37" stop-color="#8aeb8f" stop-opacity="0.4"/><stop offset="0.5" stop-color="#6ee6b1" stop-opacity="0.25"/><stop offset="0.62" stop-color="#59e3cb" stop-opacity="0.14"/><stop offset="0.75" stop-color="#49e0de" stop-opacity="0.06"/><stop offset="0.88" stop-color="#40dfe9" stop-opacity="0.02"/><stop offset="1" stop-color="#3ddeed" stop-opacity="0"/></linearGradient><linearGradient id="linear-gradient-2" x1="1532.18" y1="174.97" x2="1612.72" y2="174.97" gradientTransform="matrix(-0.62, 0.06, 0.06, 0.58, 1037.8, 104)" xlink:href="#linear-gradient"/><linearGradient id="linear-gradient-3" x1="744" y1="240.98" x2="824.54" y2="240.98" gradientTransform="matrix(-0.62, 0.06, 0.06, 0.58, 1037.8, 104)" xlink:href="#linear-gradient"/></defs><g id="Layer_2" data-name="Layer 2"><circle class="cls-1" cx="329.52" cy="310.38" r="306.38"/><circle class="cls-1" cx="329.52" cy="310.38" r="183.83"/><path class="cls-2" d="M898.67,893.6l54.13-9.71c-36.08-24.18-42.9-28.08-42.9-28.08-18.06-10.33-36.16-18.55-40.2-20.37l-.14-.06L844,885.94,810.84,869.6,803.18,888c3.27,1.44,30.75,10.83,57.19,26.55,22.52,13.39,43.92,31.15,43.92,31.15S902.09,925.31,898.67,893.6Z" transform="translate(-302.21 -97.45)"/><path class="cls-2" d="M889.26,797C854,784.91,744.89,749,709,744.49c-62.36-7.91-122.21-2.85-140.94-1-3.56.35-14.34,1.43-26,3.06-36.69,5.12-94.35,17.3-167.83,50.11C380,812.33,385.83,826,391,837.53c9.12,20.18,17.76,36.58,24.16,48.11,1.14,2.05,2.09,3.74,2.74,4.89,3.93-2.35,9.69-5.64,16.86-9.19a252,252,0,0,1,40.85-15.83c41.27-12.41,85.25-25.67,146-27.06,5.81-.14,22.41-.41,42.89,1,38.31,2.67,101.71,12.08,179.24,48q22.22-45.19,44.42-90.38l.93.3A2.79,2.79,0,0,1,889.26,797Z" transform="translate(-302.21 -97.45)"/><path class="cls-2" d="M364.3,899.06l-52-9.7c34.64-24.19,41.19-28.09,41.19-28.09,17.35-10.33,34.73-18.55,38.61-20.37l.13-.06,24.51,50.56,31.88-16.34L456,893.44c-3.14,1.44-29.53,10.84-54.92,26.55-21.62,13.39-42.17,31.15-42.17,31.15S361,930.77,364.3,899.06Z" transform="translate(-302.21 -97.45)"/><path class="cls-3" d="M464.46,852.38l-8.63,4.9A30.68,30.68,0,0,1,453,854c-.45,4.64-4.09,8.13-9.49,11.2-12.88,7.31-23.26,1.57-28.9-8.38-6.24-11-3.85-23.63,10.1-31.55,12.29-7,20.74-4.55,25.1,1.18l-12,6.82c-1.66-1.54-4.27-3.11-9.19-.31-6,3.39-5.38,9.49-1.39,16.52,3.8,6.7,8.75,10.14,14.71,6.75,5.1-2.89,4.92-6.84,2.87-10.44l-.15-.28-7.16,4.07-4.18-7.36,19.18-10.89Z" transform="translate(-302.21 -97.45)"/><path class="cls-3" d="M509.05,811.64c4.42,11.6,1.36,23.29-15,29.52-15.51,5.91-25.58-.85-30-12.42-3.94-10.33-1-22.84,15.07-29C494.56,793.89,505,800.91,509.05,811.64Zm-31.3,11.84c2.9,7.61,7.6,11.86,13.78,9.5,6.69-2.55,6.92-8.19,3.85-16.25-2.66-7-6.66-11.44-13.58-8.8C475.47,810.34,474.94,816.1,477.75,823.48Z" transform="translate(-302.21 -97.45)"/><path class="cls-3" d="M565.45,798.44c2.68,12.11-2.05,23.24-19.11,27-16.21,3.59-25.19-4.56-27.87-16.65-2.39-10.79,2.28-22.75,19.13-26.48C553.7,778.76,563,787.23,565.45,798.44Zm-32.7,7.16c1.76,7.95,5.8,12.83,12.25,11.4,7-1.55,8-7.1,6.18-15.51-1.62-7.31-4.93-12.3-12.16-10.69C532.41,792.26,531,797.89,532.75,805.6Z" transform="translate(-302.21 -97.45)"/><path class="cls-3" d="M575.2,776l19.65-1.58c16.52-1.33,25.16,6,26.15,18.45,1.09,13.57-7.07,22.61-23,23.88l-19.41,1.56ZM592,808.81l4.66-.38c7.38-.59,10.51-5,9.77-14.2-.64-8-3.86-11.9-11.66-11.27l-4.81.38Z" transform="translate(-302.21 -97.45)"/><path class="cls-3" d="M652.66,773.09l35.16,3-.74,8.79L665.67,783l-.7,8.34,20.06,1.7-.74,8.74-20.06-1.69-1.39,16.43-13.76-1.16Z" transform="translate(-302.21 -97.45)"/><path class="cls-3" d="M741.52,807.88c-2.58,12.14-11.5,20.31-28.59,16.67-16.24-3.44-21-14.59-18.46-26.7,2.3-10.81,11.5-19.76,28.38-16.17C739,785.1,743.9,796.64,741.52,807.88Zm-32.72-7c-1.69,8,0,14.09,6.42,15.46,7,1.49,10.26-3.13,12-11.56,1.56-7.32.61-13.23-6.64-14.77C714,788.56,710.44,793.12,708.8,800.84Z" transform="translate(-302.21 -97.45)"/><path class="cls-3" d="M796.08,827.31c-4.31,11.64-14.32,18.42-30.71,12.35-15.56-5.77-18.69-17.49-14.38-29.1,3.84-10.37,14.24-17.88,30.42-11.88C796.87,804.41,800.07,816.54,796.08,827.31ZM764.73,815.6c-2.83,7.64-2.09,13.92,4.11,16.22,6.71,2.49,10.61-1.6,13.6-9.68,2.6-7,2.52-13-4.42-15.58C771.67,804.21,767.47,808.2,764.73,815.6Z" transform="translate(-302.21 -97.45)"/><path class="cls-3" d="M816.77,814,834,823.51c14.51,8,17.64,18.92,11.61,29.82-6.58,11.91-18.37,14.94-32.35,7.21l-17-9.42Zm-4.09,36.61,4.09,2.26c6.48,3.58,11.51,1.65,16-6.44,3.87-7,3.36-12.06-3.5-15.84L825,828.22Z" transform="translate(-302.21 -97.45)"/><path class="cls-4" d="M579,420.55l1.72,4.56-2.26,14.58-4.31,7.72a164.06,164.06,0,0,1-16.4.86c-6.65-.08-11.46-1-21.09-2.93-6.24-1.22-11.34-2.49-14.84-3.42-9.25-2.05-10.43-2.37-10.43-2.37a50.49,50.49,0,0,1-13.75-6.17c-7.27-7.4-8.39-8.89-8.39-8.89a30.88,30.88,0,0,1-5.6-13.31c-.33-3.61-.65-7.22-1-10.83l-5.83-6.13,7.46-8.81,9.54,6.21,7.36-1.13a28.74,28.74,0,0,0,6.63,6.18c2.85,1.89,4.23,2,8.35,4.68,3,1.92,3.08,2.38,5.18,3.66a30.36,30.36,0,0,0,10,3.73C537.64,410.13,555.12,414.57,579,420.55Z" transform="translate(-302.21 -97.45)"/><path class="cls-5" d="M780.59,392.84c.9-.57,1-3-1.79-10.55.4-1.65.79-3.29,1.19-4.94l5.19.09,3.75,2.72,8.17-.26,1.95,1.54v4.17l3.41,2.89c.08,1.87.17,3.74.25,5.62l-2.64,2.38H798l2.55,2.3-.09,3.23-2.72,2.13-5.79.25-4.34-5.7c-.62.63-1.24,1.25-1.87,1.87l.26,7.75-.94,1-.08,3.15-7.41,7.06-10.64-12q4.61,6.46,9.19,12.94L766,430.37,753.27,418q3.27,4.77,6.55,9.53l-11.75-9,14.13,14.55a112.74,112.74,0,0,1-13.36,8.77c-3.78,2.11-10.45,5.53-10.47,5.53h0L734,449.26h0s-3.77,1.29-5.28,1l-.94-.17h0a9,9,0,0,1-2.29-2,8.73,8.73,0,0,1-1.37-3.07h0c.07-.76.26-3.23.26-3.23h0l7.4-11.49h0l4.26-6.13h0l6.55,5.2h0L737,422.71h0l14.38-17.19h0l9.2,9.62h0L753,403.73h0l7.75-7.15h0a25.59,25.59,0,0,1,6.46-3.74l3.32-1.11h0a14.43,14.43,0,0,1,7,1.36h0S779.84,393.31,780.59,392.84Z" transform="translate(-302.21 -97.45)"/><path class="cls-5" d="M512.1,375.56c-1.07-.28-1.86-2.63-1.2-10.66l-2.61-4.37-5.22,1.64-3,3.74-8.33,2.21-1.54,2.06,1.19,4-2.62,3.8,1.35,5.46,3.34,1.49,2.15-.64-1.92,3,1,3.08,3.36,1.22,5.92-1.5,2.76-6.77,2.42,1.23,2,7.5,1.24.7,1,3,9.5,4.55q3.66-7.35,7.33-14.7-2.8,7.57-5.6,15.16l13.05,6.42,9.29-15.64-3.9,11.1q4.65-6.07,9.29-12.17l-10.12,18.19a120.35,120.35,0,0,0,16,4.39c4.42.88,12.14,2.15,12.15,2.15h0l5,.47h0s4.17.1,5.62-.61l.9-.44h0A9.42,9.42,0,0,0,583.6,412a8.29,8.29,0,0,0,.5-3.35h0l-1.18-3h0l-10.75-8.79h0l-6-4.59h0L561,399.2h0l3.67-8.11h0l-19.43-12.16h0l-6.55,12h0l4.4-13.21h0l-9.86-4.53h0a27.1,27.1,0,0,0-7.61-1.64l-3.66-.06h0a17.81,17.81,0,0,0-3.63,1.34,18.23,18.23,0,0,0-3,2.06h0S513,375.78,512.1,375.56Z" transform="translate(-302.21 -97.45)"/><ellipse class="cls-6" cx="338.65" cy="274.51" rx="45.45" ry="39.96"/><path class="cls-7" d="M620.2,306c-4.77,7.2,12.21,27.73,12.39,28h0l-.48.41c-.8.69-29.26,25.12-29.26,25.13h0L626,352.18h0L645.81,372h0l-7.43-24.71h0L669,355.48h0c-18.7-18.44-19.83-19.78-19.83-19.78-13.51-15.88-21.48-34.6-21.48-34.6h0S622,303.39,620.2,306Z" transform="translate(-302.21 -97.45)"/><path class="cls-8" d="M633.56,444.47q-2.2-7.65-4.42-15.3v-8.92c0-.42,0-.85,0-1.28a42,42,0,0,1,5.53-19.76c9.34,9.31,10.7,11.16,10.7,11.16a31.55,31.55,0,0,1,5.9,15.3c1.12,11.59-5.29,20.07-7.38,22.63l-8.91-.43s-3.82-1-4.74-.21h0l-13.74-8.51c-7.23-7.35-10.46-14-12.08-18.58-2.95-8.44-4-20.25-4-20.4h0A135.8,135.8,0,0,1,619.55,411a79.1,79.1,0,0,1,9.59,8" transform="translate(-302.21 -97.45)"/><path class="cls-9" d="M583.06,404.75c-.55,3.75,1.27,5.27.37,7.51-.42,1.05-1.51,2.43-4.68,3.41-1.36,5.87-.24,9.81.65,11.94,1.6,3.79,4.49,6.5,7.11,9,3,2.86,6.59,5.32,8.07,8.49.14.29,1.48,3.23,1.48,3.23l10.64-.13a21.73,21.73,0,0,1,4.59-4.08,34.57,34.57,0,0,1,10.4-4.21,58.76,58.76,0,0,1-13.54-15.63c-5.57-9.47-9.34-22.41-9.34-22.41,7.05-.42,11.75,1.26,14.87,3.07,6.4,3.72,12.14,11.51,12.3,11.67a34.85,34.85,0,0,0-1.75-17.28s-1.09-2.85-8.63-14.95a6.78,6.78,0,0,1,2-3c2.43-2.1,6.55-2.3,6.55-2.3-.54,3.09,2.23-6.63.74-9.39-1.83-3.39-7.68-3.91-9.71-3.1l-2.23.93s-1.21-3.37-3.52-4.45c-2.08-1-5.08-.11-5.08-.11l-1.84,4-6.79,3a13.48,13.48,0,0,0,1,7.08,48.6,48.6,0,0,0,3.32,4,50.79,50.79,0,0,0-11.68,12.3A51.53,51.53,0,0,0,584.8,400,19.23,19.23,0,0,0,583.06,404.75Z" transform="translate(-302.21 -97.45)"/><path class="cls-10" d="M689.43,362.83c.89-1.22,2.76-2.36,6.89-2.3q2.29,8.43,4.6,16.85l-8.43,2.3h0S685.94,367.58,689.43,362.83Z" transform="translate(-302.21 -97.45)"/><ellipse class="cls-11" cx="389.19" cy="303.53" rx="42.89" ry="27.42"/><ellipse class="cls-12" cx="373" cy="332.65" rx="23.74" ry="17.01"/><ellipse class="cls-13" cx="407.64" cy="332.65" rx="21.45" ry="18.42"/><path class="cls-14" d="M669.77,387q-.9,7.79-1.79,15.58h0l4.59-14.56h0l-.76,13h0" transform="translate(-302.21 -97.45)"/><path class="cls-14" d="M700.76,387l2,15.58h0l-5.17-14.56h0l.86,13h0" transform="translate(-302.21 -97.45)"/></g><path class="cls-15" d="M500.05,449.93h0s49,.9,95.42,1.1c20.54.08,51.74.2,92.28-.55,30.62-.57,56.39-1.44,75.33-2.2,1.12,15.82.09,42.48-17.58,68.11a114.88,114.88,0,0,1-10.67,13.19h0c-11.56,11.56-40.17,29.66-40.17,29.66l10,.55-.63,15.93-142.5-1.65h0V558.69h0s12.85,1.42,13.81-.55c1.41-2.87-24.25-9.7-44.57-28-5.77-5.2-23.58-22.56-28.25-47.24C500.2,470.39,500.05,449.93,500.05,449.93Z" transform="translate(-302.21 -97.45)"/><path class="cls-16" d="M518.13,470.47A110.43,110.43,0,0,0,537,506.73c8.69,11,24.19,26.17,23.86,25.81h0" transform="translate(-302.21 -97.45)"/><polygon class="cls-17" points="63.72 320.12 78.83 311.73 94.69 318.62 90.94 302.58 102.91 290.51 85.48 288.99 77.02 274.64 70 289.74 52.8 292.95 65.89 303.8 63.72 320.12"/><path class="cls-3" d="M429.6,278.31c11.38,7.47,17.18,19.82,9.14,36.76C428.83,336,410.92,336,393.55,327.78c-17.71-8.41-27.92-24.19-18.64-43.75,8.93-18.81,23.78-19.43,33.53-15.4l-7.94,16.74c-5.13-1.35-10-1.8-13.19,4.86-3.79,8,3.21,14.45,14.57,19.84s20.73,6.66,24.51-1.31c3.19-6.71-.92-10.85-4.76-13.66Z" transform="translate(-302.21 -97.45)"/><path class="cls-3" d="M406.05,234.41l12.59-14.07L459,256.46l19.3-21.57,9.38,11-30.62,34.22Z" transform="translate(-302.21 -97.45)"/><path class="cls-3" d="M520.12,190.05,496,205.59l7.58,11.76L530.45,200l5.89,13-40.39,26-37.1-57.55,40.39-26,7.73,12-25.09,16.18,6.4,9.93,24.11-15.54Z" transform="translate(-302.21 -97.45)"/><path class="cls-3" d="M595.91,170.44c1.88,13.49-3.58,26-21.61,31.11-22.25,6.32-34.1-7.11-39.35-25.61-5.35-18.85-.21-36.93,20.61-42.84,20-5.69,30.28,5.06,33.68,15.06l-17.82,5.06c-2.37-4.74-5.26-8.72-12.35-6.71-8.49,2.41-8.75,11.93-5.31,24,3.48,12.25,8.66,20,17.14,17.56,7.15-2,7.55-7.84,7.13-12.58Z" transform="translate(-302.21 -97.45)"/><path class="cls-3" d="M614.63,123.28l18.47.62-1,29c6.74-9.32,14.73-20.47,20.4-28.34l22.06.73L652,151.88l21.41,41.88L651.26,193l-12.52-29.18-7.18,8.06-.68,20.44-18.54-.62Z" transform="translate(-302.21 -97.45)"/><path class="cls-3" d="M730.79,140.28l17,8.3L736.54,171.5l17,8.34,11.22-22.92,17,8.33-30.09,61.51-17-8.33,12.41-25.38-17-8.34-12.42,25.38-17-8.3Z" transform="translate(-302.21 -97.45)"/><path class="cls-3" d="M823.49,198.39l-31.06,31.69c-4.23,4.32-6.92,9.38-1.19,15,5.58,5.47,10.39,2.81,14.79-1.68l31.06-31.69L850.67,225l-30.6,31.23c-11.17,11.39-24,13-38.74-1.54s-13-27-1.91-38.35L810,185.17Z" transform="translate(-302.21 -97.45)"/><path class="cls-3" d="M870.75,252.55l14.17,26.89c7.66,14.55,3,23.94-5,28.13-7.12,3.75-12.74,1.78-16.48-1.43.64,5.62-.91,13.1-9.18,17.46-11.08,5.84-22.67,1.51-30.14-12.67l-13.94-26.48ZM829.82,294.8l3.92,7.44c2.34,4.45,6.25,7,11.78,4.08,5.05-2.66,6.16-6.8,3-12.76L845,286.81ZM859.48,288c2.78,5.28,5.72,6.63,10.08,4.33s4.69-6.05,2.39-10.42l-3.83-7.27-12.28,6.46Z" transform="translate(-302.21 -97.45)"/><path class="cls-14" d="M601.51,413.26l-10.89,1.19h0c6.88.22,11.06.5,11.06.85,0,0,0,.25-11.57,1.36h0" transform="translate(-302.21 -97.45)"/><path class="cls-14" d="M606,428.39l-10.89,1.19h0c6.88.23,11.06.51,11.06.86,0,0,0,.25-11.57,1.36h0" transform="translate(-302.21 -97.45)"/><polygon class="cls-18" points="555.78 312.34 570.89 303.94 586.75 310.83 583 294.79 594.98 282.72 577.55 281.2 569.09 266.86 562.06 281.95 544.86 285.16 557.95 296.01 555.78 312.34"/><path class="cls-3" d="M375.87,462.35l36,.21c.07-2.05.34-5.63.53-6.83l8.87,0a19.63,19.63,0,0,0,4.36,11.74l-.06,11.7-49.76-.28Z" transform="translate(-302.21 -97.45)"/><path class="cls-3" d="M416.47,540.59c-14.63,4.73-27.32,2.41-32.68-14.18-5.24-16.22,3.2-25.68,17.82-30.4,14.18-4.58,26.23-.81,31.28,14.82C437.82,526.08,431.13,535.86,416.47,540.59Zm-9.74-28.68c-11.28,3.64-15.76,6.66-14.11,11.75,1.72,5.34,7.19,4.77,18.38,1.15,10.75-3.47,14.66-6.29,13.08-11.19C422.55,508.89,418.13,508.23,406.73,511.91Z" transform="translate(-302.21 -97.45)"/><path class="cls-3" d="M453.25,590c-12,9.65-24.66,12-35.6-1.55-10.7-13.27-6.2-25.12,5.76-34.75,11.6-9.36,24.2-10.16,34.52,2.63C468,568.81,465.24,580.34,453.25,590Zm-19.37-23.3c-9.23,7.44-12.33,11.86-9,16,3.52,4.37,8.42,1.89,17.58-5.5,8.79-7.08,11.43-11.12,8.2-15.13S443.21,559.19,433.88,566.71Z" transform="translate(-302.21 -97.45)"/><path class="cls-3" d="M461.94,630.32l57.52-23.92,7.43,4.36-57.54,23.9Zm34.14-21.52c-4.51,7.68-12.4,10.52-21.8,5s-11-13.59-6.46-21.43c4-6.83,11.79-10.46,21.83-4.56C498.43,593,500.65,601,496.08,608.8Zm-17.82-10.68c-3,5.07-2.93,7.86-.24,9.43s5.14.33,8.09-4.7,2.31-7.23-.19-8.7S481.05,593.38,478.26,598.12Zm43.15,50.16c-4.55,7.74-12.39,10.5-21.79,5s-11.08-13.5-6.51-21.35c4-6.82,11.84-10.54,21.88-4.64C523.77,632.42,526,640.47,521.41,648.28Zm-17.81-10.7c-3,5.06-2.92,7.85-.24,9.43s5.14.33,8.1-4.7,2.31-7.23-.19-8.7S506.39,632.83,503.6,637.58Z" transform="translate(-302.21 -97.45)"/><path class="cls-3" d="M618.93,656.18c-2.1,14.87-12.26,25.45-33.4,22.47-20.07-2.84-26.86-15.89-24.77-30.73,1.87-13.24,12.32-24.79,33.18-21.84C613.88,628.9,620.87,642.43,618.93,656.18Zm-40.46-5.81c-1.38,9.75,1.15,17,9.15,18.13,8.66,1.22,12.23-4.62,13.69-14.94,1.26-9-.39-16-9.35-17.29C583.76,635.12,579.81,640.91,578.47,650.37Z" transform="translate(-302.21 -97.45)"/><path class="cls-3" d="M652.25,660.45l2.12,19.61-16.64,1.79-5.51-51.06,28.27-3c13.61-1.47,21.68,3.62,22.55,11.73.74,6.86-3.11,10.75-8.24,13.06,6.67,1.35,9.06,5.46,9.69,11.33l.17,1.58a66.94,66.94,0,0,0,1.93,11.13l-16.4,1.77c-1.13-2-1.78-5.24-2.42-11.1l-.15-1.44c-.58-5.34-2.88-6.71-9.46-6Zm-1.08-10,7.18-.78c5.08-.55,8.5-2.52,8-6.85-.43-4-3.84-5.19-8.18-4.72l-8.26.89Z" transform="translate(-302.21 -97.45)"/><path class="cls-3" d="M758.59,655.25l-11.47,3.9a37.2,37.2,0,0,1-2.61-4.55c-1.62,5.42-6.78,8.76-14,11.21-17.13,5.83-28.22-3.32-32.68-16.42-4.93-14.46.87-29,19.42-35.29,16.34-5.56,25.9-.79,29.79,7l-16,5.43c-1.64-2.21-4.4-4.65-10.94-2.42-7.95,2.71-8.65,10.1-5.5,19.35,3,8.82,8.13,14,16.06,11.32,6.78-2.31,7.47-7,5.86-11.79l-.12-.36L727,645.88l-3.3-9.69,25.5-8.68C753.65,640.73,758.2,654.09,758.59,655.25Z" transform="translate(-302.21 -97.45)"/><path class="cls-3" d="M786.45,627.79l3.11,10.41-14.07,9.29L761.74,595,781,582.28l43.53,32.79-14.91,9.85L801,618.15Zm6.14-17.28c-6.37-5-12.26-10-16.26-13.74l-.21.14c2.06,5.41,4.39,12.79,6.48,20.19Z" transform="translate(-302.21 -97.45)"/><path class="cls-3" d="M840.14,600.88l-39.67-32.61,13.21-16.07c28.46,6.32,34.74,8,36.88,8.79l.2-.24c-5-3.32-12-8.74-18.14-13.81l-8.72-7.17,10-12.15,39.67,32.62-12.75,15.5c-31.57-7.36-36.46-8.68-38.45-9.3l-.12.14c5.33,3.67,12.14,9.24,19,14.88l8.87,7.29Z" transform="translate(-302.21 -97.45)"/><path class="cls-3" d="M844.82,500.76,892,521.11l-6.82,15.79L838,516.55Z" transform="translate(-302.21 -97.45)"/><path class="cls-3" d="M888.94,441.86C898.87,444.47,906,453,904.49,470c-1.89,21-14.58,26.9-28.94,25.6-14.64-1.32-25.78-11.36-24-31,1.7-18.88,12.09-24.28,20-24.06L870,457.39c-4,.54-7.56,1.77-8.16,8.46-.72,8,5.84,11.19,15.23,12s16.35-1.15,17.07-9.15c.61-6.74-3.33-8.9-6.75-10Z" transform="translate(-302.21 -97.45)"/></svg>